<svg xmlns="http://www.w3.org/2000/svg" width="400" height="400" viewBox="0 0 400 400"><defs><style>.cls-1 { isolation: isolate; } .cls-2, .cls-4 { fill: #ffc534; } .cls-3 { fill: #01bcf1; } .cls-10, .cls-11, .cls-13, .cls-16, .cls-17, .cls-4 { mix-blend-mode: multiply; } .cls-5 { fill: #8ce6f4; } .cls-10, .cls-6 { fill: #445aa8; } .cls-17, .cls-7 { fill: #ff6e00; } .cls-16, .cls-8 { fill: #14bef0; } .cls-9 { fill: #fff; } .cls-11, .cls-12 { fill: #7850ff; } .cls-14 { fill: #32e1ff; } .cls-15 { fill: #734a9c; } .cls-18 { fill: #0177cb; } .cls-19 { fill: #29318f; }</style></defs><title>order</title><g class="cls-1"><g id="Layer_1" data-name="Layer 1"><path class="cls-2" d="M152 188.3l-5-75.8c.41-20.68 13.31-38.13 45.06-39.44 22.89-.95 46.93 6.42 49.12 29.1 1.22 12.64 11.11 117.08 11.11 117.08S191.3 243.34 175 232s-23-43.7-23-43.7z"/><path class="cls-3" d="M165.24 54.41c-1-6.85-3.08-19-2.37-21 1-2.8 3.75-4.77 6.09-6 4.45-2.38 18.95-5.5 44.77-2.56 0 0 3.13.45 4.33 9.75.67 5.17 1.44 11.53.77 17.44-.37 3.25-1.46 3.2-4 4.55-.87.47-3.36 1.38-4.32 1.1-.63-.19 0-3-.54-3.19a54.86 54.86 0 0 0-34.47 1.31 3.31 3.31 0 0 1 0 1.87c-1.55.58-4.78.58-7.06.25-1.02-.18-2.8-.72-3.2-3.52z"/><path class="cls-4" d="M212.59 75.33c-1.69.1-2 3.51-5.58 5.27-7.38 3.6-12.11 3.22-19.49 2.46-6.83-.7-10.57-3.38-10.84-9.86l-1.08-17.85c3.48-2.91 18.77-6.05 29.95-2.74 2.23.49 5.27 1 5.38 2.06.51 5.51.92 15.99 1.66 20.66z"/><path class="cls-5" d="M149.66 118.03l-49.31 15.7 2.19 7.49 45.91-10.72 1.21-12.47z"/><path class="cls-6" d="M214.2 151.39c-.34-2.19-1.46-3.23-1-6.31.33-2.08-1.39-3.14-.93-5.91.3-1.81-.55-3.5-.8-5l-.83-5.22c-.55-3.44-2.62-5.71-7.46-5.71q-3.57 0-7 .05a19.84 19.84 0 0 0-3.71.07c-5 1.05-7.37-.84-12 .45-3.26.91-6.15-.58-9.82.65-3 1-6.19.53-9.12.85-7.09.76-14 .39-19.5 2.74-2.62 1.11-4.35.42-6.25 1.19-2.47 1-4.59.47-6.49 1.43-.93.47-1.48.17-2.1.51-1.43.78-2.2.56-3.25.84-13.17 3.54-21.94 7.51-26.84 10.61-3.73 2.36-4.68 5.07-4.65 9.31 0 3.5 1 7.57 1.51 12 .45 3.63.91 7.47 1.38 11.35 2.3 19.2 4.61 39.36 4.61 39.36l25.49 57.3h96.07l2-53c-1.91-18.3-6.07-46.53-9.31-67.56z"/><path class="cls-7" d="M100 137s-5.92-23.37-5.2-26.25a8.25 8.25 0 0 1 4.48-6.09c4.76-2.9 26.81-14.4 87.58-12.6 0 0 5.75-.37 6.83 6.82s2.52 21.22 2.52 21.22-58.67-1.81-96.21 16.9z"/><path class="cls-8" d="M214.68 154.11s7.13 48.42 8.89 64.81l6.31 45-44.07 8S171.73 170.23 170.72 166c-1.23-5.11 8.4-6.74 8.4-6.74z"/><path class="cls-9" d="M216.08 180.66c-1.28.74-3.17.42-4.62 1a62.24 62.24 0 0 1-10.23 2.5c-3.35.64-6.45 1.73-9.86 1.85-.55 0-4.48-.47-4.25.95a.9.9 0 0 0-1.1-.63 19 19 0 0 1-5.38 1.17.9.9 0 0 0 0 1.8 18.06 18.06 0 0 0 5.12-1 2.17 2.17 0 0 0 1.93.52c.51 0 1.54-.73 2.07-.84a11.69 11.69 0 0 1 2.53 0 19.89 19.89 0 0 0 4.87-1.1c4.29-1.28 9-1.26 13.21-2.64a30.26 30.26 0 0 1 3.48-1.4c1.28-.25 2 .05 3.15-.63a.9.9 0 0 0-.92-1.55zM192.84 196.95c-1 .09-2.59-.06-3.54.38-.31.14-.47.39-.75.56a3.55 3.55 0 0 1-1.41.37c-.89.17-.92.44-1.64.9-1 .63-1.75.1-2.81.27s-.66 1.9.48 1.73c.81-.12 1.49.67 2.38.4s1-.93 1.7-1.19 1.3-.19 1.94-.47.35-.65 1.57-1a12.68 12.68 0 0 1 2.08-.18c1.16-.07 1.16-1.87 0-1.77zM217.57 189.5c-1.73 1.07-3.79.88-5.53 1.82a18.68 18.68 0 0 1-5.58 2 14 14 0 0 0-3.09.44c-.48.21-.79.77-1.22 1-1.15.56-2.17-.17-3.35.46-1 .55-.11 2.1.91 1.55.24-.13 1.39.49 1.9.41.95-.15.77-.48 1.56-.87a28.66 28.66 0 0 1 7.11-1.87c1.6-.26 1.7-.58 2.92-1.41 1-.68.27-.35 1.91-.5a8.08 8.08 0 0 0 3.36-1.47c.99-.62.09-2.18-.9-1.56zM191.37 169a15.42 15.42 0 0 0-4.83.58c-.13-.89-.23-1.78-.3-2.68-.13-1.72-2.83-1.73-2.69 0 .09 1.15.23 2.29.4 3.43-1.29.41-2.55.83-3.73 1.15a1.35 1.35 0 0 0 .72 2.6c1.11-.3 2.3-.71 3.52-1.1.23.88.5 1.75.68 2.63a1.32 1.32 0 0 0 .32 1.34l.09.08a1.37 1.37 0 0 0 2.12-.27c.65-1.09-.19-2.61-.46-3.7-.07-.28-.12-.55-.18-.83a13.87 13.87 0 0 1 4.35-.53c1.72.16 1.72-2.53-.01-2.7z"/><path class="cls-4" d="M117.77 121.24c-1.34-4.68-2.43-9.42-3.32-14.21-1.16-6.22-11-5.06-9.8 1.2 1.05 5.66 2.4 11.24 4 16.77.74 2.57 4.18 3.62 6.45 2.68 2.68-1.1 3.41-3.86 2.67-6.44z"/><path class="cls-10" d="M117.75 216.25q-4.32-34.49-10.09-68.77c-1.06-6.25-10.58-3.6-9.52 2.63q5.19 30.74 9.17 61.66c.18 1.49 6.98 3.71 10.44 4.48z"/><path class="cls-11" d="M179.12 159.28s17.7-1.23 22.05-1 6.35.67 8.89.51a19.53 19.53 0 0 0 5.13-1.16l-.51-3.48z"/><path class="cls-12" d="M206 244.55c.55-46.92 5-86.88 15.93-132.5a6.83 6.83 0 0 1 1.18-2.87 9.59 9.59 0 0 1 3.57-2.42c31.92-11.52 71.51-26.2 105.46-27.18-17.51 33.19-27.77 74.48-28.25 113.26 0 0-.15 7.79-1.05 10.94s-88.74 52.25-92.34 50.9-4.5-10.13-4.5-10.13z"/><path class="cls-13 cls-12" d="M330.11 78.44a316.79 316.79 0 0 0-55.75 11.49c-9.19 2.73-18.29 5.74-27.36 8.84q-6.25 2.13-12.48 4.37c-3.38 1.22-7.87 2-10.81 4.1-3.9 2.73-4 9.57-4.66 13.75-1.19 7.35-3.25 14.58-4.55 21.93-2.87 16.2-4.37 32.63-7 48.87-3.23 19.69-5.16 38.8-2.3 58.68.46 3.17 5.28 1.82 4.82-1.33-2.48-17.23-1.23-34.1 1.51-51.2 2.46-15.34 4.34-30.72 6.59-46.08 1-7.14 2.32-14.3 4-21.33 1.26-5.37 1.75-11.08 3.31-16.35 1.1-3.73 4.79-4.15 8.2-5.39q5.69-2.07 11.42-4c8.26-2.85 16.56-5.64 24.91-8.23 19.68-6.1 39.71-10.83 60.21-13.07 3.16-.35 3.2-5.35 0-5z"/><path class="cls-13 cls-12" d="M236.65 141.76c-.9 3 .1 5.61 1.58 8.34a9 9 0 0 0 7 4.45 11.82 11.82 0 0 0 8.1-2.49 13.07 13.07 0 0 0 5.19-9.71c.15-3.79-1-7.42-4.16-9.54a10.73 10.73 0 0 0-6.41-2.23c-2.13.11-5.63 1.22-7.2 2.88s-2.75 3.77-4.1 8.3z"/><path class="cls-2" d="M236.15 139.9c-.9 3 .1 5.61 1.58 8.34a9 9 0 0 0 7 4.45 11.82 11.82 0 0 0 8.1-2.49 13.07 13.07 0 0 0 5.19-9.71c.15-3.79-1-7.42-4.16-9.54a10.73 10.73 0 0 0-6.41-2.23c-2.13.11-5.63 1.22-7.2 2.88s-2.73 3.76-4.1 8.3z"/><path class="cls-13 cls-12" d="M274.84 127.52c-.9 3 .1 5.61 1.58 8.34a9 9 0 0 0 7 4.45 11.82 11.82 0 0 0 8.1-2.49 13.07 13.07 0 0 0 5.19-9.71c.15-3.79-1-7.42-4.16-9.54a10.73 10.73 0 0 0-6.41-2.23c-2.13.11-5.63 1.22-7.2 2.88s-2.72 3.78-4.1 8.3z"/><path class="cls-2" d="M274.34 125.65c-.9 3 .1 5.61 1.58 8.34a9 9 0 0 0 7 4.45 11.82 11.82 0 0 0 8.1-2.49 13.07 13.07 0 0 0 5.19-9.71c.15-3.79-1-7.42-4.16-9.54a10.73 10.73 0 0 0-6.41-2.23c-2.13.11-5.63 1.22-7.2 2.88s-2.72 3.77-4.1 8.3z"/><path class="cls-13 cls-12" d="M229.36 183.27c-.9 3 .1 5.61 1.58 8.34a9 9 0 0 0 7 4.45 11.82 11.82 0 0 0 8.1-2.49 13.07 13.07 0 0 0 5.19-9.71c.15-3.79-1-7.42-4.16-9.54a10.73 10.73 0 0 0-6.41-2.23c-2.13.11-5.63 1.22-7.2 2.88s-2.72 3.77-4.1 8.3z"/><path class="cls-2" d="M228.86 181.41c-.9 3 .1 5.61 1.58 8.34a9 9 0 0 0 7 4.45 11.82 11.82 0 0 0 8.1-2.49 13.07 13.07 0 0 0 5.19-9.71c.15-3.79-1-7.42-4.16-9.54a10.73 10.73 0 0 0-6.41-2.23c-2.13.11-5.63 1.22-7.2 2.88s-2.72 3.76-4.1 8.3z"/><path class="cls-13 cls-12" d="M267.56 169c-.9 3 .1 5.61 1.58 8.34a9 9 0 0 0 7 4.45 11.82 11.82 0 0 0 8.1-2.49 13.07 13.07 0 0 0 5.19-9.71c.15-3.79-1-7.42-4.16-9.54a10.73 10.73 0 0 0-6.41-2.23c-2.13.11-5.63 1.22-7.2 2.88s-2.73 3.79-4.1 8.3z"/><path class="cls-2" d="M267.05 167.16c-.9 3 .1 5.61 1.58 8.34a9 9 0 0 0 7 4.45 11.82 11.82 0 0 0 8.1-2.49 13.07 13.07 0 0 0 5.19-9.71c.15-3.79-1-7.42-4.16-9.54a10.73 10.73 0 0 0-6.36-2.21c-2.13.11-5.63 1.22-7.2 2.88s-2.77 3.75-4.15 8.28z"/><path class="cls-13 cls-12" d="M228.1 228.27c-.9 3 .1 5.61 1.58 8.34a9 9 0 0 0 7 4.45 11.82 11.82 0 0 0 8.1-2.49 13.07 13.07 0 0 0 5.19-9.71c.15-3.79-1-7.42-4.16-9.54a10.73 10.73 0 0 0-6.41-2.23c-2.13.11-5.63 1.22-7.2 2.88s-2.73 3.76-4.1 8.3z"/><path class="cls-2" d="M227.59 226.4c-.9 3 .1 5.61 1.58 8.34a9 9 0 0 0 7 4.45 11.82 11.82 0 0 0 8.1-2.49 13.07 13.07 0 0 0 5.19-9.71c.15-3.79-1-7.42-4.16-9.54a10.73 10.73 0 0 0-6.41-2.23c-2.13.11-5.63 1.22-7.2 2.88s-2.69 3.76-4.1 8.3z"/><path class="cls-13 cls-12" d="M266.29 214c-.9 3 .1 5.61 1.58 8.34a9 9 0 0 0 7 4.45 11.82 11.82 0 0 0 8.1-2.49 13.07 13.07 0 0 0 5.19-9.71c.15-3.79-1-7.42-4.16-9.54a10.73 10.73 0 0 0-6.41-2.23c-2.13.11-5.63 1.22-7.2 2.88s-2.73 3.79-4.1 8.3z"/><path class="cls-2" d="M265.79 212.16c-.9 3 .1 5.61 1.58 8.34a9 9 0 0 0 7 4.45 11.82 11.82 0 0 0 8.1-2.49 13.07 13.07 0 0 0 5.19-9.71c.15-3.79-1-7.42-4.16-9.54a10.73 10.73 0 0 0-6.41-2.23c-2.13.11-5.63 1.22-7.2 2.88s-2.73 3.76-4.1 8.3z"/><path class="cls-8" d="M92.71 207.33s101.75 40.6 114.88 43.31 113.92-59.55 113.92-59.55l2.67 105.08s.66 5.34-3.62 7.31c-19.75 9.11-108.22 53.18-112 55-2.77 1.32-7.15 1.35-29.47-6.77-19-6.92-68.41-29.38-82.47-36.1-3.86-1.85-3.86-8.61-3.86-8.61z"/><path class="cls-14" d="M207.59 250.63s9.17 4.76 10.76 7.17 8.76 5.05 10.49 7 8.95 5.88 14.29 9.51a12.08 12.08 0 0 0 10.56 1.61l11.78-7.73s6-2.74 9.53-6.26 19.51-11.37 22.19-14.56 22.54-13.77 25.12-17.18S342 218 342 218l7.05-4.63 7.68-5a2.11 2.11 0 0 0 .7-1.42c0-.68-2.62-1.59-2.62-1.59L330 194.7l-1.83-.78-6.65-2.83zM207.59 250.63s-18.48 15.34-26 25.09a3.63 3.63 0 0 1-4.53.89c-4.72-2.92-14.35-12.05-30.11-14.64-4.72-.77-9.23-2.42-11.93-4.5s-6.1-2.9-9.51-3.56c-8.75-1.68-9.21-5-16.55-6.12-25.89-4.07-47.87-15.57-56.46-18.52-1.42-.49-1.91-1.61.13-3.09C61.14 220 84 204.4 92.71 207.33z"/><path class="cls-14" d="M100.1 210.11l-3.9-1.47c-1.54-.58-3-1.15-3.49-1.32l-19.2-6.27a11.52 11.52 0 0 0-2.89-.94c-1.43-.07-1.36-.84-3-1-1-.08-1.78-.93-2.73-.89-1.39.06-1.83-.91-3.44-1.12-3.48-.45-6.17-2-8.19-2.67s-1.7-1.65.5-2.75c2-1 4.59-2.83 8-4 1.87-.65 2.22-1.29 3.51-1.76 1.66-.61 2.24-1.32 3.52-1.76a23 23 0 0 0 3.14-1.57l5-2.5c9-4.5 17.06-8.49 18-8.87zM310.38 196.9l11.13-5.82L358.24 176s-49.45-20.39-51.12-20.83c0 0-1.59 12-2 15.78-.33 3.38-1 12.41-1 12.41z"/><path class="cls-15" d="M321.51 191.09l-17.57-7.63-.65 17.15 18.22-9.52zM92.71 207.32l6.37-4.91 1.02 7.7-7.39-2.79z"/><path class="cls-16" d="M211.59 253.64c-.25-3.5-6.44-3.52-6.2 0a600.39 600.39 0 0 1-1.21 98.94c-.33 3.51 5.87 3.49 6.2 0a600.39 600.39 0 0 0 1.21-98.94z"/><path class="cls-2" d="M285.59 240.82a1.27 1.27 0 0 0 0 2.54 1.27 1.27 0 0 0 0-2.54zM244.3 255.9h-.79a1.27 1.27 0 0 0 0 2.54h.79a1.27 1.27 0 0 0 0-2.54zM121.43 262h-.79a1.27 1.27 0 0 0 0 2.54h.79a1.27 1.27 0 0 0 0-2.54zM366.12 300.11a520.25 520.25 0 0 0-78.48-30.21c-2.47-.73-3.53 3.13-1.06 3.86a513.74 513.74 0 0 1 77.53 29.8c2.3 1.11 4.33-2.34 2.01-3.45zM323.19 372.44c-18-20.23-57-50.26-83.53-60.07-2.42-.9-3.46 3-1.06 3.86 25.43 9.42 64 39.7 81.14 58.23 1.73 1.87 5.17-.09 3.45-2.02zM284.4 303.23l-19.86-6.12c-2.47-.76-3.52 3.1-1.06 3.86l19.86 6.12c2.47.76 3.52-3.09 1.06-3.86zM100.73 275.53l-18.36 9.74c-2.28 1.21-.29 4.68 2 3.48l18.34-9.75c2.29-1.21.29-4.68-1.98-3.47zM41.34 206.84H40a1.27 1.27 0 0 0 0 2.54h1.32a1.27 1.27 0 0 0 .02-2.54zM306.64 111.52a1.27 1.27 0 0 0 0 2.54 1.27 1.27 0 0 0 0-2.54zM367.66 129.06a1.27 1.27 0 0 0 0 2.54 1.27 1.27 0 0 0 0-2.54zM58.48 145.7a12.2 12.2 0 0 0-5.91-7.53 12.09 12.09 0 0 0-12 0 7.79 7.79 0 0 0-1.83 1.38c-.2.17-.41.33-.6.51a12.17 12.17 0 0 0-3 5.15 12.3 12.3 0 0 0 1.15 9.69 12 12 0 0 0 10.12 5.92 12.65 12.65 0 0 0 8.92-3.62 12 12 0 0 0 3.15-11.5z"/><path class="cls-7" d="M60.84 93.48A91.78 91.78 0 0 0 40.3 77c-8.45-5-16.12 8.16-7.68 13.14a77.28 77.28 0 0 1 17.46 14.08c6.69 7.2 17.43-3.58 10.76-10.74z"/><path class="cls-2" d="M300.08 35.41a12.18 12.18 0 0 0-9.6.18A9.43 9.43 0 0 0 285.07 46a9.92 9.92 0 0 0 7.1 10.67c3.55 1.15 7.7-.66 10.16-3.24a12.71 12.71 0 0 0 3.47-8.24 9.89 9.89 0 0 0-5.72-9.78z"/><path class="cls-4" d="M299.43 48.77a28 28 0 0 0-7.67-9.22c-.64-.5-1.54.4-.9.9a27.2 27.2 0 0 1 7.47 9c.38.68 1.47.04 1.1-.68zM51.92 142.22c-4.38 3-7.75 7.09-11.95 10.27-.64.49 0 1.59.64 1.09 4.2-3.18 7.58-7.31 11.95-10.27.67-.45.04-1.55-.64-1.09z"/><path class="cls-2" d="M60.84 93.48a90.14 90.14 0 0 0-8.22-7.78C48.76 82.48 39 94.22 41.87 96.56a79.34 79.34 0 0 1 8.22 7.68c6.68 7.18 17.42-3.6 10.75-10.76z"/><path class="cls-17" d="M49.45 84.81C44 86 41.15 91.68 40.68 95.88c-.09.81.87 1.12 1.08.34.9-3.42 2.92-9.21 8.14-10.37.7-.16.26-1.19-.45-1.04z"/><path class="cls-3" d="M243.68 42c-5.66.94-11.74 2.15-17 .8a25 25 0 0 0-12.42-.47l-.15-.17c.12-1.84 1.68-2 2.88-2.11 3.41-.21 4.69-1.89 4.24-5.18a3.56 3.56 0 0 1 .62-1.87c.79-3.74 3.3-4.89 6.87-4.9 4.39 0 8.69-1.87 13.16-.67-2.77 5.29-2.27 10.16 1.8 14.57z"/><path class="cls-18" d="M221.85 33c1.06 7 1.06 7-5.63 8.26a10.44 10.44 0 0 0-2.1.9c-4.87-.61-6.57-2.73-5.41-6.29.78-2.4 2.73-2 4.4-2.45z"/><path class="cls-19" d="M243.68 42c-5-1.42-6.06-10.34-1.81-14.56 5.6 2.06 6.57 9.89 1.81 14.56z"/></g></g></svg>