<svg xmlns="http://www.w3.org/2000/svg" width="400" height="400" viewBox="0 0 400 400"><defs><style>.cls-1 { isolation: isolate; } .cls-2, .cls-3, .cls-4 { fill: #18bef0; } .cls-2 { opacity: 0.2; } .cls-10, .cls-4 { mix-blend-mode: multiply; } .cls-5 { fill: #ffc534; } .cls-6 { fill: #ffa000; } .cls-7 { fill: #7850ff; } .cls-10, .cls-8 { fill: #ff6e00; } .cls-9 { fill: #fff; opacity: 0.53; } .cls-10 { opacity: 0.54; }</style></defs><title>phr</title><g class="cls-1"><g id="Layer_1" data-name="Layer 1"><path class="cls-2" d="M88.13 279.47s200.17-26.88 273 .69c35.09 13.28.1 54.88-8 60.95-30 22.5-112.45 69.91-196.85 30.08-32.36-15.27-69-8.28-99.57-19-22.66-7.93-35.55-23.44-35.55-37.53.05-31.66 66.97-35.19 66.97-35.19z"/><path class="cls-3" d="M327.55 208.62c-.81-23.29-.87-65-1.05-66.95.25-9.28-8.59-13-13.26-14.63-8.58-3-16.1-4.09-23.15-6-5.32-1.69-12.18-3.42-17.53-5-8.77-2.6-14.27-4.29-23.11-6.62-7.71-2-17.77-4.59-25.73-7.29a2.68 2.68 0 0 0-2 .12c-7.8 3.74-11.77 4.79-26.62 12.53-16.29 8.49-34.35 20.39-52.21 30.93-16.56 9.78-27.15 15.69-42.88 26.76-4.14 2.33-6.75 6.51-6.5 12.52.45 10.45-.18 24.77.11 26.19q1 26.55 2.72 53.07c.82 12.19 1.69 24.4 2.88 36.57a49.66 49.66 0 0 0 2.18 11.07 21.37 21.37 0 0 0 5.87 14.93 14.86 14.86 0 0 0 7.45 7c6.81 3.14 14.92 4 22.14 5.86q13.14 3.46 26 7.95 14.87 5.2 29.21 11.76c5.15 2.36 10.18 5.1 15.55 6.17a9 9 0 0 0 7.86 1.15c.29-.08.57-.18.85-.27a2.34 2.34 0 0 0 2.6-1l.06-.05c5.39-2.62 9.8-7.27 14.31-11.1l17.53-14.91c11.72-10 23.48-19.9 35.15-29.93s23-20.11 33.88-30.9c10.08-10 8.26-14.15 8.63-27.88-.02-.67-.58-31.67-.94-42.05z"/><path class="cls-4" d="M209.75 327.33l-1.87-32.64L206 262c-.57-9.91-.57-20.14-2.75-29.87-1.66-7.4-4.92-14.75-10.57-20-6.15-5.71-14.61-7.46-22.42-9.76l-63.78-18.75c-2-.6-2.9 2.57-.87 3.17l57.61 16.93c8.94 2.63 20.07 4.22 27.14 10.72 7.29 6.7 9.9 16.78 11 26.28 2.22 20 2.49 40.35 3.64 60.42 1.11 19.27 4.08 39.51 1.65 58.75-.27 2.09 3 2.07 3.29 0 1.33-10.79.43-21.68-.19-32.56z"/><path class="cls-5" d="M168 177.89s.51-36.31-.16-52.4c-1.15-27.59-12.45-56.67-12.45-56.67L245.93 13s7.64 43.9 7.64 75.32v36.61s0 3.62-.06 5.69c0 .92-2.57 2.47-2.57 2.47l-82.12 55.12z"/><path class="cls-4" d="M264 120.67a3.42 3.42 0 0 0-1-1.11 9 9 0 0 0-6.41-1.92c-2.85.13-4.75 4.73-1.61 6.09l1.57.68c-6 6-13.44 10.26-20.41 14.88l-27.7 18.39-27.7 18.39c-3.83 2.54-7.91 6.54-12.24 8.1a3.72 3.72 0 0 0 0-.48c0-1.28-.49-6.45-.54-7.73-.89.6-1.84 1.48-3.89 2.75-2.75 1.72-4.43 3.43-7 4.93a2.8 2.8 0 0 0-.76.66c-1.94 1.86-.68 6.07 2.42 7.58 2.81 1.36 6.75.11 10.2-.85 4.53-1.26 9-5.31 12.89-7.9l29.83-19.8 29.83-19.8c8-5.34 16.57-10.3 22.74-18 1.08-1.28 1.37-3.79-.22-4.86z"/><path class="cls-6" d="M155.39 68.83L245.93 13a1.86 1.86 0 0 0-2.33-.47c-1.5.68-89.65 54.78-90 55.33a2.4 2.4 0 0 0 0 2.28c.43.87 10.36 35.1 10.82 42s1.15 19.85.92 23.32.23 35.78.23 38.09-.74 14.65 1.24 14.65h2s-.73-9.77-.82-11 .12-38.26.12-38.26 0-18.88-1.92-29.27-5.87-32.35-10.8-40.84z"/><path class="cls-7" d="M188.92 74.27a8.17 8.17 0 0 0-6.25-7.18c-4.24-.79-7.64 3.26-7.58 7.25a7.19 7.19 0 0 0 4.55 6.53 6.1 6.1 0 0 0 3.79.69 6.8 6.8 0 0 0 5.49-7.29zM201.57 99.25a3 3 0 0 0 0-.45 23.75 23.75 0 0 0-1.3-8.38c-.59-1.46-1.64-3.57-3.22-4.33a10.14 10.14 0 0 0-.75-.72 8.31 8.31 0 0 0-10.3-.59c-9.35 6.49-9.34 18.94-9.39 29a2.71 2.71 0 0 0 3.87 2.43 2.5 2.5 0 0 0 1.52-.46c6.23-4.14 12.46-8.21 18-13.23a3 3 0 0 0 .42-.47 2.73 2.73 0 0 0 1.15-2.8zM212 117a5.35 5.35 0 0 0-2.76 1.36c-1.82 1.47-2.43 2.17-4.7 3-1.41.53-1.7.14-2.93 1.13s-1.61 2.71-3.29 3.51c-2.59 1.15-4.86.57-7.31 2.36-4.15 3-9 4.55-13.26 7.73-1.68 1.25 0 4.1 1.66 2.84a32.13 32.13 0 0 1 7.51-4.65 36 36 0 0 0 3.58-1.29c2.19-1.13 1.63-2.22 4.7-3.19 1.52-.48 3.09-.25 4.58-.84 2.46-1 3.15-3.31 5.64-4.32 1-.41 2.14-.3 3.13-.87 1.57-.9 2.44-3.12 4.33-3.51 2.06-.48 1.18-3.65-.88-3.26zM241.38 102.87c0 .09-1.77.19-2.19.31a4.06 4.06 0 0 0-2.2 1.55c-.21.26-.37.6-.63.72s-.77 0-1.06 0a2.25 2.25 0 0 0-1.86 1.29c-.79 1.81 1.67 3.39 2.67 2h.16a4.26 4.26 0 0 0 .82-.07 3.23 3.23 0 0 0 1.08-.37c.74-.44 1-1.39 1.7-1.81s2-.26 2.85-.68a3.45 3.45 0 0 0 1.83-2c.79-2.03-2.39-2.88-3.17-.94zM224.13 127.9c-.44.91-1.71.92-2.59 1.13a6.83 6.83 0 0 0-2.76 1.17 6.41 6.41 0 0 0-.94 1c-.52.63 0 .41-.91.53a5.31 5.31 0 0 0-1.44.33 1.71 1.71 0 0 0-.47.07c-2.7.83-4.25 2.87-6.84 3.73-3.92 1.31-7 3.88-10.46 6.24-3.69 2.55-7.34 5.56-11.25 7.76-2.46 1.38-4.67 1.75-6.42 4.05-1.28 1.68 1.57 3.32 2.84 1.66s5.49-3 7.26-4.24c3.09-2.11 6.16-4.26 9.23-6.39 3.36-2.32 6.28-4.5 10.19-5.79 2.34-.77 3.59-2.77 5.88-3.68a1.35 1.35 0 0 0 1.67-.44h.2a4.53 4.53 0 0 0 .84-.07 3.05 3.05 0 0 0 1.45-.62c.93-.75 1-1.6 2.19-2 2-.62 4.14-.69 5.16-2.79.94-1.88-1.9-3.55-2.83-1.65zM246.64 115.51c-2-.37-2.57 1-4.18 1.72-.93.42-1.86.65-2.78 1.16-1.24.69-2.46 1.43-3.69 2.14a1.65 1.65 0 0 0 1.66 2.84 30.38 30.38 0 0 1 5.41-2.91 6.06 6.06 0 0 0 1.71-.75c.28-.2 1.31-1 1-1 2.06.36 2.95-2.81.87-3.2z"/><path class="cls-8" d="M235.85 38c-2 1-4 2.05-6 3.11-.07-2.16-.16-4.31-.31-6.47-.24-3.51-5.63-2.48-5.39 1 .2 2.82.29 5.63.32 8.45-2.87 1.64-5.71 3.32-8.51 5.08-3 1.85-.64 6.83 2.36 4.95 2-1.26 4.05-2.48 6.1-3.69q-.08 2.62-.25 5.25c-.23 3.52 5.23 4 5.46.46.19-2.95.27-5.89.3-8.84 2.73-1.5 5.48-3 8.27-4.37 3.16-1.59.8-6.54-2.35-4.93z"/><path class="cls-4" d="M304.43 130.84c-1.69-1.28-3.33 1.57-1.66 2.84 2.37 1.8-11.08 9.4-12.31 10.14l-11.8 7.11-22.46 13.52c-7 4.24-14 8.52-20.64 13.4-6.39 4.72-12.11 10.29-18.93 14.42a1.59 1.59 0 0 0-.68.77c-7.67 4.52-19.5 11.14-28 5.94-1.81-1.1-3.47 1.74-1.66 2.84 10 6.07 23-1 31.79-6.2a1.55 1.55 0 0 0 .69-.8c8.33-5.14 15.34-12.13 23.43-17.63 9.12-6.2 18.7-11.71 28.14-17.4l29.06-17.5c3.86-2.29 10.88-7.02 5.03-11.45z"/><path class="cls-5" d="M111.87 102.52a75.68 75.68 0 0 0-17.29-8.16c-2-.65-3.29 2.38-1.27 3a72.3 72.3 0 0 1 16.53 7.71c1.77 1.16 3.82-1.42 2.03-2.55zM130.37 96l-8.59-17.22c-.94-1.89-3.78-.23-2.84 1.66l8.59 17.22c.94 1.94 3.78.28 2.84-1.66zM126.24 228.62a1.65 1.65 0 0 0 0 3.29 1.65 1.65 0 0 0 0-3.29zM159.06 209.21a1.67 1.67 0 0 0-2.33 0l-1.3 1.3a1.64 1.64 0 1 0 2.33 2.33l1.3-1.3a1.67 1.67 0 0 0 0-2.33zM304.14 109.63A37.91 37.91 0 0 0 292 123.42c-1 1.88 1.87 3.54 2.84 1.66a34.47 34.47 0 0 1 11-12.61c1.69-1.2.04-4.05-1.7-2.84zM100.84 202.84a31.3 31.3 0 0 0-16.7 5.08c-1.77 1.15-.12 4 1.66 2.84a28 28 0 0 1 15-4.63c2.2-.04 2.2-3.33.04-3.29zM285 63.35c-3.86-3.69-10.87.77-9.48 5.8a1.65 1.65 0 0 0 3.17-.87c-.52-1.87 2.47-3.95 4-2.6 1.69 1.5-.79 4.62-2.7 4s-2.88 2.52-.87 3.17c5.1 1.65 9.88-5.69 5.88-9.5z"/><path class="cls-4" d="M320.28 253.59s-3.12-85.65-3.11-91.59.73-12.62-4.21-14.11-80.45 52.72-90.84 59.36-8.07 11.11-8.07 11.11l.64 16.24a3 3 0 0 0-2.59 3.4 140.05 140.05 0 0 1 1.71 22.79 2.49 2.49 0 0 0 2 2.55l1.62 41.34a2.64 2.64 0 0 0-2.67 2.63q-.26 10.58.15 21.16a2.78 2.78 0 0 0 3.55 2.55l.67 16.94s2 8.46 8.09 4c3.25-2.39 86.07-70 90.62-78.19s2.44-20.18 2.44-20.18z"/><path class="cls-9" d="M312.56 223c-3.91-10.26-16.4-22.62-27.78-14.53a1.09 1.09 0 0 0-.48.86c-9.56 6.22-10.67 19.53-10.87 30.29-.23 11.93-.11 29.63 10.84 37.32s21.1-1.43 25.13-11.69c5.12-13.03 8.31-28.72 3.16-42.25zm-10.43 50.26c-6.5 6.45-15.81 5-20.87-2.51-4-6-4.82-13.87-5.35-20.89-1-12.72-2.07-34.3 12.25-40.13a1.12 1.12 0 0 0 .69-.88c5.81-2 12.3 1.25 16.34 5.83 4.65 5.29 7.05 12.39 7.63 19.33a59.69 59.69 0 0 1-2.1 19.73c-1.72 6.62-3.63 14.6-8.6 19.53z"/><path class="cls-8" d="M329.87 278.51q-2.27-2.21-4.52-4.45c4.34-14.6 4.73-31.28 4.93-45.88.15-11-.81-22.6-6.08-32q4.71-7.85 9.19-15.85c1.71-3.06-2.81-6.16-4.53-3.08q-3.93 7-8.05 13.95a36.29 36.29 0 0 0-6.1-5.8 23.44 23.44 0 0 0-5.89-5.63c-3.67-2.26-7.82-4.59-12.07-4.89a9.28 9.28 0 0 0-2.63-.41 1.57 1.57 0 0 0-.64-.2c-17.69-1.62-31.3 15.89-37.72 33.41-1.23-.94-2.43-1.91-3.57-3a3.09 3.09 0 0 0-.52-.38 52.37 52.37 0 0 0-7.93-6.58c-2.93-2-6 2.57-3.08 4.53a46.09 46.09 0 0 1 7.88 6.66 2.82 2.82 0 0 0 1 .7c1.44 1.22 2.93 2.36 4.45 3.45-.35 1.25-.67 2.49-.94 3.71-3 13.23-2.7 27-1.14 40.34 1.51 13 3.24 27.63 9.68 38.79a31.21 31.21 0 0 0 4.14 5.64l-4.27 8.3a3.08 3.08 0 0 0-.19.48c0 .08-.09.15-.13.23a73.23 73.23 0 0 1-5.06 9.28c-1.9 3 2.63 6.06 4.53 3.08a83.2 83.2 0 0 0 5.7-10.55c0-.06 0-.12.06-.17l3.58-7c12.18 8.51 29.17 4.31 40.93-6.52a50 50 0 0 0 12.5-18.94l2.34 2.31c2.53 2.53 6.68-1.04 4.15-3.53zm-61-76.6c2.73-4.75 5.51-9.5 9.91-12.52a38.78 38.78 0 0 1 10.22-4.64c8.79-1.29 16.41 4.47 22.36 11.31a37.18 37.18 0 0 1 3.56 4.83q-5.73 9.21-11.81 18.2a7.11 7.11 0 0 0-1-.55c-3.81-1.8-8.89-1.74-12 .65a20 20 0 0 0-6.39 9.42c-4.36-3.88-8.85-7.59-13.57-11-2.17-1.58-4.44-3.05-6.7-4.53a77.75 77.75 0 0 1 5.42-11.16zm1.7 90.26c-5.82-7.35-7.59-18.25-9-27.66-1.48-10-2.6-20.24-2.22-30.41a65.74 65.74 0 0 1 2.44-15.7l2.17 1.47a169.8 169.8 0 0 1 17.89 14.3 3.1 3.1 0 0 0 .5.37 56.27 56.27 0 0 0-.68 8.22c-.1 6.23.06 14.68 4.06 20zm42.72-10.23c-7.29 13.38-26.13 23.06-38.61 14.15L290 266.25c5 2.2 11-.32 13.72-5.34.14-.25.26-.52.39-.78q6.28 6.67 12.74 13.17a45.55 45.55 0 0 1-3.55 8.64zm7-28.35a133.35 133.35 0 0 1-1.87 13.5q-5.87-6-11.59-12.09a2.87 2.87 0 0 0-.71-.55c1.44-6 1.55-12.79 1.67-18.28v-1.63a5.42 5.42 0 0 0 .22-1.75q-.14-3.24-.59-6.45a7.9 7.9 0 0 0-.82-2.58q5.77-8.48 11.23-17.16a56 56 0 0 1 3.42 16.58c.75 10.1 0 20.36-.97 30.41z"/><path class="cls-10" d="M287.62 260.8a56.26 56.26 0 0 1-3.11-26.34c.24-2.28-8.82-8.64-12.59-11.54-2.44-1.89-6.55-6.8-10-5.08-1.89 1-.18.53.59 1.7.61-.31 9 7.25 9.69 7.75 2.74 2.16 9.18 6.78 9.59 6.84-1 9.13-.66 18.87 2.62 27.53v.05l-14.27 28.38c-.95 1.89 1.89 3.55 2.84 1.66l14.42-28.69a1.62 1.62 0 0 0 .14-1.15 1.39 1.39 0 0 0 .08-1.11zM317 271a138.13 138.13 0 0 0-10.53-11c-1.54-1.45-3.87.88-2.33 2.33a138.11 138.11 0 0 1 10.44 10.9 30.47 30.47 0 0 1-7.31 13.66c-.38.42-4.28 5.54-6.68 7.1-.39.25-4.48 3-6.62 3.62-.67.21-.39 1.26.29 1.06 2.24-.68 7.06-2.54 7.44-2.78a77.18 77.18 0 0 0 7.9-6.67 33.89 33.89 0 0 0 8.23-15.37A5.38 5.38 0 0 0 317 271zM320.41 206.67c-.58-2-3.76-1.17-3.17.87 5.44 19 3.22 38.58.83 57.84-.26 2.1 3 2.08 3.29 0 2.43-19.56 4.58-39.46-.95-58.71zM316.15 199.27a20.67 20.67 0 0 0-2.72-5.32c-1.19-1.52-2.86-2.6-4-4.16a41.3 41.3 0 0 0-6.7-4.14 54.59 54.59 0 0 0-10.43-1.87.55.55 0 0 0 0 1.1c3.05 0 8.89 2.46 9.33 2.67a23.45 23.45 0 0 1 5 3.9 32.34 32.34 0 0 0 3.47 3.65 14.23 14.23 0 0 1 2.92 5.05c.73 1.94 3.91 1.09 3.13-.88zM294.64 216.16c-2.74.4-5.56 1.11-7.45 3.28a22.51 22.51 0 0 0-4 7.83c-.44 1.34 1.68 1.92 2.11.58a20.17 20.17 0 0 1 3.44-6.86c1.63-1.89 4.14-2.37 6.49-2.71 1.39-.21.77-2.28-.59-2.12zM279.69 176.12c-12.55 4.84-20.12 18-25.06 29.84-.54 1.3 1.58 1.87 2.11.58 4.6-11 11.82-23.79 23.53-28.31 1.31-.5.73-2.62-.58-2.11zM266.49 299.77a127.27 127.27 0 0 1-10.69-85.15 2.2 2.2 0 0 0-1.68-2.65 1.67 1.67 0 0 0-.55-.59 40.21 40.21 0 0 1-7.79-6.6c-1.81-2-3.06-4.75-6-5-2.11-.17-2.1 3.12 0 3.29.92.08 2.26 2.42 2.81 3.07a40.44 40.44 0 0 0 2.93 3.09 44.5 44.5 0 0 0 5.94 4.69A132.11 132.11 0 0 0 262.71 302l.06.09a101.85 101.85 0 0 0-7.66 18.16c-.63 2 2.54 2.89 3.17.87a97.65 97.65 0 0 1 8.1-18.78 1.65 1.65 0 0 0 .22-.74 2.13 2.13 0 0 0-.11-1.83zM297.42 307c-11.71 3.85-19.92 1.39-26.05-1.75-1.88-1-2.5 1-2.52 2.18 7.6 3.9 22.67 4.56 29.08.25 1.75-1.17 1.66-1.38-.51-.68zM327.54 177a51.28 51.28 0 0 1-7.9 11.13c-1.44 1.55.88 3.88 2.33 2.33a54.57 54.57 0 0 0 8.42-11.79c.98-1.87-1.86-3.53-2.85-1.67zM328.16 280.91c-.8 1.36-2.41-.87-2.8-1.48-.76-1.19-2.66-.09-1.89 1.11a5.74 5.74 0 0 0 3.16 2.81 3.06 3.06 0 0 0 3.43-1.34 1.1 1.1 0 0 0-1.9-1.1z"/></g></g></svg>